<svg width="254" height="70" viewBox="0 0 254 70" fill="none" xmlns="http://www.w3.org/2000/svg">
<rect width="254" height="70" fill="#1A2236"/>
<path d="M51.8587 38.3806C51.8587 39.0046 51.7087 39.5866 51.4087 40.1266C51.1087 40.6546 50.6527 41.0806 50.0407 41.4046C49.4287 41.7286 48.6787 41.8906 47.7907 41.8906C46.9267 41.8906 46.1527 41.7406 45.4687 41.4406C44.7847 41.1286 44.2387 40.6966 43.8307 40.1446C43.4227 39.5926 43.1887 38.9566 43.1287 38.2366H45.3247C45.3847 38.7886 45.6187 39.2626 46.0267 39.6586C46.4467 40.0546 47.0047 40.2526 47.7007 40.2526C48.3247 40.2526 48.8047 40.0846 49.1407 39.7486C49.4887 39.4126 49.6627 38.9806 49.6627 38.4526C49.6627 37.9966 49.5367 37.6246 49.2847 37.3366C49.0327 37.0366 48.7207 36.8026 48.3487 36.6346C47.9767 36.4666 47.4667 36.2746 46.8187 36.0586C46.0267 35.8066 45.3787 35.5546 44.8747 35.3026C44.3827 35.0506 43.9627 34.6846 43.6147 34.2046C43.2667 33.7246 43.0927 33.0946 43.0927 32.3146C43.0927 31.6306 43.2607 31.0306 43.5967 30.5146C43.9327 29.9986 44.4127 29.6026 45.0367 29.3266C45.6607 29.0386 46.3807 28.8946 47.1967 28.8946C48.4927 28.8946 49.5187 29.2066 50.2747 29.8306C51.0427 30.4546 51.4807 31.2706 51.5887 32.2786H49.3747C49.2907 31.7986 49.0627 31.3906 48.6907 31.0546C48.3307 30.7066 47.8327 30.5326 47.1967 30.5326C46.6207 30.5326 46.1587 30.6826 45.8107 30.9826C45.4627 31.2706 45.2887 31.6906 45.2887 32.2426C45.2887 32.6746 45.4087 33.0346 45.6487 33.3226C45.8887 33.5986 46.1887 33.8206 46.5487 33.9886C46.9207 34.1446 47.4247 34.3306 48.0607 34.5466C48.8647 34.7986 49.5187 35.0566 50.0227 35.3206C50.5387 35.5726 50.9707 35.9446 51.3187 36.4366C51.6787 36.9286 51.8587 37.5766 51.8587 38.3806ZM58.8989 39.9826V41.7646H57.6389C56.5829 41.7646 55.7789 41.5126 55.2269 41.0086C54.6869 40.4926 54.4169 39.6406 54.4169 38.4526V33.5926H52.9949V31.8466H54.4169V29.3806H56.4869V31.8466H58.8809V33.5926H56.4869V38.4886C56.4869 39.0526 56.5889 39.4426 56.7929 39.6586C57.0089 39.8746 57.3809 39.9826 57.9089 39.9826H58.8989ZM64.7991 31.7206C65.6991 31.7206 66.4671 31.9426 67.1031 32.3866C67.7391 32.8306 68.1891 33.4186 68.4531 34.1506V31.8466H70.5051V41.7646H68.4531V39.4606C68.1891 40.1926 67.7391 40.7806 67.1031 41.2246C66.4671 41.6686 65.6991 41.8906 64.7991 41.8906C63.9351 41.8906 63.1611 41.6866 62.4771 41.2786C61.8051 40.8706 61.2771 40.2826 60.8931 39.5146C60.5091 38.7466 60.3171 37.8406 60.3171 36.7966C60.3171 35.7646 60.5091 34.8646 60.8931 34.0966C61.2771 33.3286 61.8051 32.7406 62.4771 32.3326C63.1611 31.9246 63.9351 31.7206 64.7991 31.7206ZM65.4291 33.5206C64.5171 33.5206 63.7851 33.8146 63.2331 34.4026C62.6931 34.9786 62.4231 35.7766 62.4231 36.7966C62.4231 37.8166 62.6931 38.6206 63.2331 39.2086C63.7851 39.7846 64.5171 40.0726 65.4291 40.0726C66.0051 40.0726 66.5211 39.9406 66.9771 39.6766C67.4331 39.4006 67.7931 39.0166 68.0571 38.5246C68.3211 38.0326 68.4531 37.4566 68.4531 36.7966C68.4531 36.1486 68.3211 35.5786 68.0571 35.0866C67.7931 34.5826 67.4331 34.1986 66.9771 33.9346C66.5211 33.6586 66.0051 33.5206 65.4291 33.5206ZM75.0196 33.7906C75.3556 33.1426 75.8356 32.6326 76.4596 32.2606C77.0836 31.8766 77.8036 31.6846 78.6196 31.6846V33.9166H78.0076C77.1076 33.9166 76.3816 34.1386 75.8296 34.5826C75.2896 35.0146 75.0196 35.7346 75.0196 36.7426V41.7646H72.9676V31.8466H75.0196V33.7906ZM85.1431 39.9826V41.7646H83.8831C82.8271 41.7646 82.0231 41.5126 81.4711 41.0086C80.9311 40.4926 80.6611 39.6406 80.6611 38.4526V33.5926H79.2391V31.8466H80.6611V29.3806H82.7311V31.8466H85.1251V33.5926H82.7311V38.4886C82.7311 39.0526 82.8331 39.4426 83.0371 39.6586C83.2531 39.8746 83.6251 39.9826 84.1531 39.9826H85.1431ZM95.694 31.7206C96.978 31.7206 98.04 32.0626 98.88 32.7466C99.72 33.4186 100.242 34.3366 100.446 35.5006H98.268C98.148 34.8766 97.854 34.3906 97.386 34.0426C96.93 33.6826 96.354 33.5026 95.658 33.5026C94.866 33.5026 94.206 33.7846 93.678 34.3486C93.15 34.9006 92.886 35.7166 92.886 36.7966C92.886 37.8766 93.15 38.6986 93.678 39.2626C94.206 39.8266 94.866 40.1086 95.658 40.1086C96.354 40.1086 96.93 39.9286 97.386 39.5686C97.854 39.2086 98.148 38.7166 98.268 38.0926H100.446C100.242 39.2566 99.72 40.1806 98.88 40.8646C98.04 41.5486 96.978 41.8906 95.694 41.8906C94.734 41.8906 93.882 41.6866 93.138 41.2786C92.406 40.8706 91.83 40.2826 91.41 39.5146C90.99 38.7466 90.78 37.8406 90.78 36.7966C90.78 35.7646 90.99 34.8646 91.41 34.0966C91.83 33.3286 92.406 32.7406 93.138 32.3326C93.882 31.9246 94.734 31.7206 95.694 31.7206ZM106.965 31.7206C107.925 31.7206 108.789 31.9246 109.557 32.3326C110.325 32.7406 110.925 33.3286 111.357 34.0966C111.789 34.8646 112.005 35.7646 112.005 36.7966C112.005 37.8406 111.789 38.7466 111.357 39.5146C110.925 40.2826 110.325 40.8706 109.557 41.2786C108.789 41.6866 107.925 41.8906 106.965 41.8906C106.005 41.8906 105.141 41.6866 104.373 41.2786C103.617 40.8706 103.017 40.2826 102.573 39.5146C102.141 38.7346 101.925 37.8286 101.925 36.7966C101.925 35.7646 102.141 34.8646 102.573 34.0966C103.017 33.3286 103.617 32.7406 104.373 32.3326C105.141 31.9246 106.005 31.7206 106.965 31.7206ZM106.965 33.5026C106.437 33.5026 105.951 33.6226 105.507 33.8626C105.063 34.1026 104.703 34.4746 104.427 34.9786C104.163 35.4706 104.031 36.0766 104.031 36.7966C104.031 37.5286 104.163 38.1406 104.427 38.6326C104.703 39.1246 105.063 39.4906 105.507 39.7306C105.951 39.9706 106.437 40.0906 106.965 40.0906C107.493 40.0906 107.979 39.9706 108.423 39.7306C108.867 39.4906 109.221 39.1246 109.485 38.6326C109.761 38.1406 109.899 37.5286 109.899 36.7966C109.899 36.0766 109.761 35.4706 109.485 34.9786C109.221 34.4746 108.867 34.1026 108.423 33.8626C107.979 33.6226 107.493 33.5026 106.965 33.5026ZM116.029 28.4446V41.7646H113.977V28.4446H116.029ZM120.565 28.4446V41.7646H118.513V28.4446H120.565ZM127.026 31.7206C127.926 31.7206 128.694 31.9426 129.33 32.3866C129.966 32.8306 130.416 33.4186 130.68 34.1506V31.8466H132.732V41.7646H130.68V39.4606C130.416 40.1926 129.966 40.7806 129.33 41.2246C128.694 41.6686 127.926 41.8906 127.026 41.8906C126.162 41.8906 125.388 41.6866 124.704 41.2786C124.032 40.8706 123.504 40.2826 123.12 39.5146C122.736 38.7466 122.544 37.8406 122.544 36.7966C122.544 35.7646 122.736 34.8646 123.12 34.0966C123.504 33.3286 124.032 32.7406 124.704 32.3326C125.388 31.9246 126.162 31.7206 127.026 31.7206ZM127.656 33.5206C126.744 33.5206 126.012 33.8146 125.46 34.4026C124.92 34.9786 124.65 35.7766 124.65 36.7966C124.65 37.8166 124.92 38.6206 125.46 39.2086C126.012 39.7846 126.744 40.0726 127.656 40.0726C128.232 40.0726 128.748 39.9406 129.204 39.6766C129.66 39.4006 130.02 39.0166 130.284 38.5246C130.548 38.0326 130.68 37.4566 130.68 36.7966C130.68 36.1486 130.548 35.5786 130.284 35.0866C130.02 34.5826 129.66 34.1986 129.204 33.9346C128.748 33.6586 128.232 33.5206 127.656 33.5206ZM140.882 31.7206C141.746 31.7206 142.514 31.9246 143.186 32.3326C143.87 32.7406 144.404 33.3286 144.788 34.0966C145.172 34.8646 145.364 35.7646 145.364 36.7966C145.364 37.8406 145.172 38.7466 144.788 39.5146C144.404 40.2826 143.87 40.8706 143.186 41.2786C142.514 41.6866 141.746 41.8906 140.882 41.8906C139.982 41.8906 139.214 41.6686 138.578 41.2246C137.942 40.7806 137.498 40.1926 137.246 39.4606V41.7646H135.194V28.4446H137.246V34.1506C137.498 33.4186 137.942 32.8306 138.578 32.3866C139.214 31.9426 139.982 31.7206 140.882 31.7206ZM140.252 33.5206C139.676 33.5206 139.16 33.6586 138.704 33.9346C138.248 34.1986 137.888 34.5826 137.624 35.0866C137.36 35.5786 137.228 36.1486 137.228 36.7966C137.228 37.4566 137.36 38.0326 137.624 38.5246C137.888 39.0166 138.248 39.4006 138.704 39.6766C139.16 39.9406 139.676 40.0726 140.252 40.0726C141.164 40.0726 141.896 39.7846 142.448 39.2086C143 38.6206 143.276 37.8166 143.276 36.7966C143.276 35.7886 143 34.9906 142.448 34.4026C141.896 33.8146 141.164 33.5206 140.252 33.5206ZM151.877 31.7206C152.837 31.7206 153.701 31.9246 154.469 32.3326C155.237 32.7406 155.837 33.3286 156.269 34.0966C156.701 34.8646 156.917 35.7646 156.917 36.7966C156.917 37.8406 156.701 38.7466 156.269 39.5146C155.837 40.2826 155.237 40.8706 154.469 41.2786C153.701 41.6866 152.837 41.8906 151.877 41.8906C150.917 41.8906 150.053 41.6866 149.285 41.2786C148.529 40.8706 147.929 40.2826 147.485 39.5146C147.053 38.7346 146.837 37.8286 146.837 36.7966C146.837 35.7646 147.053 34.8646 147.485 34.0966C147.929 33.3286 148.529 32.7406 149.285 32.3326C150.053 31.9246 150.917 31.7206 151.877 31.7206ZM151.877 33.5026C151.349 33.5026 150.863 33.6226 150.419 33.8626C149.975 34.1026 149.615 34.4746 149.339 34.9786C149.075 35.4706 148.943 36.0766 148.943 36.7966C148.943 37.5286 149.075 38.1406 149.339 38.6326C149.615 39.1246 149.975 39.4906 150.419 39.7306C150.863 39.9706 151.349 40.0906 151.877 40.0906C152.405 40.0906 152.891 39.9706 153.335 39.7306C153.779 39.4906 154.133 39.1246 154.397 38.6326C154.673 38.1406 154.811 37.5286 154.811 36.7966C154.811 36.0766 154.673 35.4706 154.397 34.9786C154.133 34.4746 153.779 34.1026 153.335 33.8626C152.891 33.6226 152.405 33.5026 151.877 33.5026ZM160.941 33.7906C161.277 33.1426 161.757 32.6326 162.381 32.2606C163.005 31.8766 163.725 31.6846 164.541 31.6846V33.9166H163.929C163.029 33.9166 162.303 34.1386 161.751 34.5826C161.211 35.0146 160.941 35.7346 160.941 36.7426V41.7646H158.889V31.8466H160.941V33.7906ZM170.057 31.7206C170.957 31.7206 171.725 31.9426 172.361 32.3866C172.997 32.8306 173.447 33.4186 173.711 34.1506V31.8466H175.763V41.7646H173.711V39.4606C173.447 40.1926 172.997 40.7806 172.361 41.2246C171.725 41.6686 170.957 41.8906 170.057 41.8906C169.193 41.8906 168.419 41.6866 167.735 41.2786C167.063 40.8706 166.535 40.2826 166.151 39.5146C165.767 38.7466 165.575 37.8406 165.575 36.7966C165.575 35.7646 165.767 34.8646 166.151 34.0966C166.535 33.3286 167.063 32.7406 167.735 32.3326C168.419 31.9246 169.193 31.7206 170.057 31.7206ZM170.687 33.5206C169.775 33.5206 169.043 33.8146 168.491 34.4026C167.951 34.9786 167.681 35.7766 167.681 36.7966C167.681 37.8166 167.951 38.6206 168.491 39.2086C169.043 39.7846 169.775 40.0726 170.687 40.0726C171.263 40.0726 171.779 39.9406 172.235 39.6766C172.691 39.4006 173.051 39.0166 173.315 38.5246C173.579 38.0326 173.711 37.4566 173.711 36.7966C173.711 36.1486 173.579 35.5786 173.315 35.0866C173.051 34.5826 172.691 34.1986 172.235 33.9346C171.779 33.6586 171.263 33.5206 170.687 33.5206ZM183.211 39.9826V41.7646H181.951C180.895 41.7646 180.091 41.5126 179.539 41.0086C178.999 40.4926 178.729 39.6406 178.729 38.4526V33.5926H177.307V31.8466H178.729V29.3806H180.799V31.8466H183.193V33.5926H180.799V38.4886C180.799 39.0526 180.901 39.4426 181.105 39.6586C181.321 39.8746 181.693 39.9826 182.221 39.9826H183.211ZM184.846 28.9666C184.846 28.6186 184.966 28.3306 185.206 28.1026C185.446 27.8746 185.764 27.7606 186.16 27.7606C186.556 27.7606 186.874 27.8746 187.114 28.1026C187.366 28.3306 187.492 28.6186 187.492 28.9666C187.492 29.3146 187.366 29.5966 187.114 29.8126C186.874 30.0286 186.556 30.1366 186.16 30.1366C185.764 30.1366 185.446 30.0286 185.206 29.8126C184.966 29.5966 184.846 29.3146 184.846 28.9666ZM187.186 31.8466V41.7646H185.134V31.8466H187.186ZM194.205 31.7206C195.165 31.7206 196.029 31.9246 196.797 32.3326C197.565 32.7406 198.165 33.3286 198.597 34.0966C199.029 34.8646 199.245 35.7646 199.245 36.7966C199.245 37.8406 199.029 38.7466 198.597 39.5146C198.165 40.2826 197.565 40.8706 196.797 41.2786C196.029 41.6866 195.165 41.8906 194.205 41.8906C193.245 41.8906 192.381 41.6866 191.613 41.2786C190.857 40.8706 190.257 40.2826 189.813 39.5146C189.381 38.7346 189.165 37.8286 189.165 36.7966C189.165 35.7646 189.381 34.8646 189.813 34.0966C190.257 33.3286 190.857 32.7406 191.613 32.3326C192.381 31.9246 193.245 31.7206 194.205 31.7206ZM194.205 33.5026C193.677 33.5026 193.191 33.6226 192.747 33.8626C192.303 34.1026 191.943 34.4746 191.667 34.9786C191.403 35.4706 191.271 36.0766 191.271 36.7966C191.271 37.5286 191.403 38.1406 191.667 38.6326C191.943 39.1246 192.303 39.4906 192.747 39.7306C193.191 39.9706 193.677 40.0906 194.205 40.0906C194.733 40.0906 195.219 39.9706 195.663 39.7306C196.107 39.4906 196.461 39.1246 196.725 38.6326C197.001 38.1406 197.139 37.5286 197.139 36.7966C197.139 36.0766 197.001 35.4706 196.725 34.9786C196.461 34.4746 196.107 34.1026 195.663 33.8626C195.219 33.6226 194.733 33.5026 194.205 33.5026ZM206.762 31.6846C207.914 31.6846 208.838 32.0566 209.534 32.8006C210.23 33.5446 210.578 34.6066 210.578 35.9866V41.7646H208.526V36.2026C208.526 35.3146 208.298 34.6306 207.842 34.1506C207.386 33.6586 206.762 33.4126 205.97 33.4126C205.154 33.4126 204.5 33.6766 204.008 34.2046C203.516 34.7206 203.27 35.4826 203.27 36.4906V41.7646H201.218V31.8466H203.27V34.0246C203.534 33.2806 203.978 32.7046 204.602 32.2966C205.226 31.8886 205.946 31.6846 206.762 31.6846Z" fill="white"/>
</svg>
