<svg width="145" height="27" viewBox="0 0 145 27" fill="none" xmlns="http://www.w3.org/2000/svg">
<path d="M120 7V25H144V7" stroke="#92DCDC" stroke-width="2"/>
<path d="M132.662 14.9624L136.91 10.7144L138.324 12.1286L131.662 18.7909L125 12.1286L126.414 10.7144L130.662 14.9625V1L132.662 1V14.9624Z" fill="#92DCDC"/>
<path d="M7.19956 7.184C8.71155 7.184 9.97156 7.556 10.9796 8.3C11.9876 9.044 12.6536 10.058 12.9776 11.342H10.8176C10.5416 10.658 10.0856 10.112 9.44956 9.704C8.82556 9.296 8.08156 9.092 7.21755 9.092C6.42555 9.092 5.71156 9.278 5.07556 9.65C4.45156 10.022 3.95955 10.55 3.59955 11.234C3.25155 11.918 3.07755 12.722 3.07755 13.646C3.07755 14.618 3.25755 15.452 3.61755 16.148C3.97755 16.844 4.48155 17.378 5.12955 17.75C5.78955 18.11 6.55155 18.29 7.41555 18.29C8.47155 18.29 9.37755 17.966 10.1336 17.318C10.8896 16.658 11.3456 15.758 11.5016 14.618H6.83955V13.106H13.2296V15.068C13.0856 16.004 12.7496 16.856 12.2216 17.624C11.7056 18.38 11.0156 18.986 10.1516 19.442C9.29956 19.898 8.32155 20.126 7.21755 20.126C5.98155 20.126 4.88956 19.85 3.94155 19.298C2.99355 18.746 2.26155 17.984 1.74555 17.012C1.22955 16.028 0.971555 14.906 0.971555 13.646C0.971555 12.386 1.22955 11.27 1.74555 10.298C2.26155 9.314 2.98755 8.552 3.92355 8.012C4.87155 7.46 5.96355 7.184 7.19956 7.184ZM24.5234 14.564C24.5234 14.9 24.4994 15.194 24.4514 15.446H16.8194C16.8554 16.466 17.1374 17.222 17.6654 17.714C18.1934 18.206 18.8474 18.452 19.6274 18.452C20.3114 18.452 20.8874 18.278 21.3554 17.93C21.8354 17.582 22.1294 17.12 22.2374 16.544H24.4334C24.3014 17.24 24.0254 17.858 23.6054 18.398C23.1854 18.938 22.6394 19.364 21.9674 19.676C21.2954 19.976 20.5454 20.126 19.7174 20.126C18.7574 20.126 17.9054 19.922 17.1614 19.514C16.4294 19.106 15.8534 18.518 15.4334 17.75C15.0134 16.982 14.8034 16.076 14.8034 15.032C14.8034 14 15.0134 13.1 15.4334 12.332C15.8534 11.564 16.4294 10.976 17.1614 10.568C17.9054 10.16 18.7574 9.956 19.7174 9.956C20.6894 9.956 21.5354 10.16 22.2554 10.568C22.9874 10.964 23.5454 11.516 23.9294 12.224C24.3254 12.92 24.5234 13.7 24.5234 14.564ZM22.4534 14.51C22.4774 13.862 22.3634 13.322 22.1114 12.89C21.8714 12.446 21.5354 12.122 21.1034 11.918C20.6834 11.702 20.2214 11.594 19.7174 11.594C18.9134 11.594 18.2414 11.84 17.7014 12.332C17.1614 12.824 16.8674 13.55 16.8194 14.51H22.4534ZM31.4907 18.218V20H30.2307C29.1747 20 28.3707 19.748 27.8187 19.244C27.2787 18.728 27.0087 17.876 27.0087 16.688V11.828H25.5867V10.082H27.0087V7.616H29.0787V10.082H31.4727V11.828H29.0787V16.724C29.0787 17.288 29.1807 17.678 29.3847 17.894C29.6007 18.11 29.9727 18.218 30.5007 18.218H31.4907ZM50.0336 9.92C51.2096 9.92 52.1456 10.292 52.8416 11.036C53.5496 11.78 53.9036 12.842 53.9036 14.222V20H51.8516V14.438C51.8516 13.574 51.6356 12.908 51.2036 12.44C50.7716 11.96 50.1776 11.72 49.4216 11.72C48.6176 11.72 47.9756 11.978 47.4956 12.494C47.0276 12.998 46.7936 13.742 46.7936 14.726V20H44.7416V14.438C44.7416 13.574 44.5256 12.908 44.0936 12.44C43.6616 11.96 43.0676 11.72 42.3116 11.72C41.5076 11.72 40.8656 11.978 40.3856 12.494C39.9176 12.998 39.6836 13.742 39.6836 14.726V20H37.6316V10.082H39.6836V12.152C39.9356 11.432 40.3556 10.88 40.9436 10.496C41.5316 10.112 42.2216 9.92 43.0136 9.92C43.8416 9.92 44.5556 10.124 45.1556 10.532C45.7676 10.94 46.2116 11.528 46.4876 12.296C46.7756 11.552 47.2376 10.97 47.8736 10.55C48.5096 10.13 49.2296 9.92 50.0336 9.92ZM57.4696 10.082L60.4396 17.372L63.1936 10.082H65.4796L59.4856 24.716H57.1996L59.3416 19.766L55.1656 10.082H57.4696ZM76.7177 7.166C78.2777 7.166 79.5737 7.562 80.6057 8.354C81.6377 9.146 82.3337 10.22 82.6937 11.576H80.5157C80.2157 10.808 79.7357 10.202 79.0757 9.758C78.4277 9.302 77.6297 9.074 76.6817 9.074C75.9257 9.074 75.2477 9.26 74.6477 9.632C74.0597 10.004 73.5917 10.538 73.2437 11.234C72.9077 11.918 72.7397 12.722 72.7397 13.646C72.7397 14.558 72.9077 15.362 73.2437 16.058C73.5917 16.742 74.0597 17.27 74.6477 17.642C75.2477 18.014 75.9257 18.2 76.6817 18.2C77.6297 18.2 78.4277 17.978 79.0757 17.534C79.7357 17.078 80.2157 16.472 80.5157 15.716H82.6937C82.3337 17.072 81.6377 18.146 80.6057 18.938C79.5737 19.718 78.2777 20.108 76.7177 20.108C75.5177 20.108 74.4557 19.838 73.5317 19.298C72.6077 18.746 71.8937 17.984 71.3897 17.012C70.8857 16.028 70.6337 14.906 70.6337 13.646C70.6337 12.386 70.8857 11.27 71.3897 10.298C71.8937 9.314 72.6077 8.546 73.5317 7.994C74.4557 7.442 75.5177 7.166 76.7177 7.166ZM86.019 7.292L89.673 17.804L93.345 7.292H95.577L90.987 20H88.359L83.787 7.292H86.019Z" fill="#92DCDC"/>
</svg>
