<svg width="72" height="102" viewBox="0 0 72 102" fill="none" xmlns="http://www.w3.org/2000/svg">
<path d="M28.2976 0.802206C14.7965 3.62334 3.84942 14.4656 0.968919 28.0505C-1.46334 39.522 1.5339 51.0388 9.19207 59.648C12.9356 63.8561 15.0824 69.4109 15.0824 74.9036V80.8802C15.0824 84.8566 17.6856 88.2347 21.2767 89.4047C22.4577 96.3824 28.5139 101.997 36.0003 101.997C43.4848 101.997 49.5426 96.3842 50.724 89.4047C54.3151 88.2347 56.9183 84.8566 56.9183 80.88V74.9034C56.9183 69.4 59.0723 63.9119 62.9829 59.4502C68.7073 52.9198 71.8597 44.5407 71.8597 35.8567C71.8597 13.2325 51.1511 -3.97227 28.2976 0.802206ZM36.0003 96.0208C32.159 96.0208 28.791 93.3776 27.5473 89.8251H44.4532C43.2097 93.3776 39.8417 96.0208 36.0003 96.0208ZM50.9417 80.8802C50.9417 82.5279 49.6012 83.8684 47.9535 83.8684H24.0472C22.3995 83.8684 21.0589 82.5279 21.0589 80.8802V77.8919H50.9417V80.8802ZM58.4886 55.5111C54.3209 60.2658 51.7568 65.9993 51.1061 71.9153H20.8952C20.2453 65.9961 17.6878 60.2062 13.658 55.6758C7.27539 48.5008 4.78137 38.8835 6.81559 29.2903C9.19008 18.0914 18.3143 8.99408 29.5202 6.65266C48.6499 2.65494 65.8832 17.021 65.8832 35.8567C65.8832 43.0908 63.2571 50.0708 58.4886 55.5111Z" fill="white"/>
</svg>
